<?xml version="1.0" encoding="UTF-8"?>
<!DOCTYPE svg PUBLIC "-//W3C//DTD SVG 1.1//EN" "http://www.w3.org/Graphics/SVG/1.1/DTD/svg11.dtd">
<!-- Creator: CorelDRAW 2018 (64 Bit) -->
<svg xmlns="http://www.w3.org/2000/svg" xml:space="preserve" width="1920px" height="1080px" version="1.1" style="shape-rendering:geometricPrecision; text-rendering:geometricPrecision; image-rendering:optimizeQuality; fill-rule:evenodd; clip-rule:evenodd"
viewBox="0 0 1920 1080"
 xmlns:xlink="http://www.w3.org/1999/xlink">
 <defs>
  <style type="text/css">
   <![CDATA[
    .str0 {stroke:#373435;stroke-width:11.81;stroke-miterlimit:22.9256}
    .str1 {stroke:#373435;stroke-width:2.36;stroke-miterlimit:22.9256}
    .fil0 {fill:none}
    .fil1 {fill:#373435}
   ]]>
  </style>
 </defs>
 <g id="Camada_x0020_1">
  <metadata id="CorelCorpID_0Corel-Layer"/>
  <circle class="fil0 str0" cx="1876.3" cy="978.17" r="389.06"/>
  <circle class="fil0 str0" cx="-5.14" cy="749.44" r="138.65"/>
  <path class="fil1 str1" d="M1857.78 493.01l0 0c4.51,0 8.21,3.69 8.21,8.21l0 21.63 21.63 0c4.51,0 8.21,3.69 8.21,8.21l0 0c0,4.51 -3.7,8.21 -8.21,8.21l-21.63 0 0 21.63c0,4.51 -3.7,8.21 -8.21,8.21l0 0c-4.52,0 -8.21,-3.7 -8.21,-8.21l0 -21.63 -21.63 0c-4.52,0 -8.21,-3.7 -8.21,-8.21l0 0c0,-4.52 3.69,-8.21 8.21,-8.21l21.63 0 0 -21.63c0,-4.52 3.69,-8.21 8.21,-8.21z"/>
  <path class="fil1 str1" d="M1943.4 501.14l0 0c4.51,0 8.2,3.69 8.2,8.21l0 21.63 21.64 0c4.51,0 8.21,3.69 8.21,8.21l0 0c0,4.51 -3.7,8.21 -8.21,8.21l-21.64 0 0 21.63c0,4.52 -3.69,8.21 -8.2,8.21l0 0c-4.52,0 -8.21,-3.69 -8.21,-8.21l0 -21.63 -21.64 0c-4.51,0 -8.21,-3.7 -8.21,-8.21l0 0c0,-4.52 3.7,-8.21 8.21,-8.21l21.64 0 0 -21.63c0,-4.52 3.69,-8.21 8.21,-8.21z"/>
  <g id="_2136040474960">
   <path class="fil1 str1" d="M29.93 -11.48l0 0c3.17,0 5.76,2.6 5.76,5.77l0 15.18 15.18 0c3.17,0 5.77,2.59 5.77,5.76l0 0c0,3.17 -2.6,5.76 -5.77,5.76l-15.18 0 0 15.18c0,3.17 -2.59,5.77 -5.76,5.77l0 0c-3.17,0 -5.76,-2.6 -5.76,-5.77l0 -15.18 -15.18 0c-3.17,0 -5.77,-2.59 -5.77,-5.76l0 0c0,-3.17 2.6,-5.76 5.77,-5.76l15.18 0 0 -15.18c0,-3.17 2.59,-5.77 5.76,-5.77z"/>
   <path class="fil1 str1" d="M181.39 -11.01l0 0c3.16,0 5.76,2.59 5.76,5.76l0 15.18 15.18 0c3.17,0 5.76,2.6 5.76,5.77l0 0c0,3.16 -2.59,5.76 -5.76,5.76l-15.18 0 0 15.18c0,3.17 -2.6,5.76 -5.76,5.76l0 0c-3.17,0 -5.77,-2.59 -5.77,-5.76l0 -15.18 -15.18 0c-3.17,0 -5.76,-2.6 -5.76,-5.76l0 0c0,-3.17 2.59,-5.77 5.76,-5.77l15.18 0 0 -15.18c0,-3.17 2.6,-5.76 5.77,-5.76z"/>
   <path class="fil1 str1" d="M332.46 -10.7l0 0c3.17,0 5.76,2.59 5.76,5.76l0 15.18 15.19 0c3.16,0 5.76,2.59 5.76,5.76l0 0c0,3.17 -2.6,5.77 -5.76,5.77l-15.19 0 0 15.18c0,3.17 -2.59,5.76 -5.76,5.76l0 0c-3.17,0 -5.76,-2.59 -5.76,-5.76l0 -15.18 -15.18 0c-3.17,0 -5.77,-2.6 -5.77,-5.77l0 0c0,-3.17 2.6,-5.76 5.77,-5.76l15.18 0 0 -15.18c0,-3.17 2.59,-5.76 5.76,-5.76z"/>
   <path class="fil1 str1" d="M105.14 9.06l0 0c3.16,0 5.76,2.6 5.76,5.76l0 15.19 15.18 0c3.17,0 5.76,2.59 5.76,5.76l0 0c0,3.17 -2.59,5.76 -5.76,5.76l-15.18 0 0 15.18c0,3.17 -2.6,5.77 -5.76,5.77l0 0c-3.17,0 -5.77,-2.6 -5.77,-5.77l0 -15.18 -15.18 0c-3.17,0 -5.76,-2.59 -5.76,-5.76l0 0c0,-3.17 2.59,-5.76 5.76,-5.76l15.18 0 0 -15.19c0,-3.16 2.6,-5.76 5.77,-5.76z"/>
   <path class="fil1 str1" d="M256.67 9.49l0 0c3.17,0 5.76,2.6 5.76,5.77l0 15.18 15.18 0c3.17,0 5.77,2.59 5.77,5.76l0 0c0,3.17 -2.6,5.76 -5.77,5.76l-15.18 0 0 15.18c0,3.17 -2.59,5.77 -5.76,5.77l0 0c-3.17,0 -5.76,-2.6 -5.76,-5.77l0 -15.18 -15.19 0c-3.16,0 -5.76,-2.59 -5.76,-5.76l0 0c0,-3.17 2.6,-5.76 5.76,-5.76l15.19 0 0 -15.18c0,-3.17 2.59,-5.77 5.76,-5.77z"/>
   <path class="fil1 str1" d="M408 9.49l0 0c3.17,0 5.76,2.6 5.76,5.77l0 15.18 15.18 0c3.17,0 5.76,2.59 5.76,5.76l0 0c0,3.17 -2.59,5.76 -5.76,5.76l-15.18 0 0 15.18c0,3.17 -2.59,5.77 -5.76,5.77l0 0c-3.17,0 -5.76,-2.6 -5.76,-5.77l0 -15.18 -15.19 0c-3.17,0 -5.76,-2.59 -5.76,-5.76l0 0c0,-3.17 2.59,-5.76 5.76,-5.76l15.19 0 0 -15.18c0,-3.17 2.59,-5.77 5.76,-5.77z"/>
   <path class="fil1 str1" d="M105.55 81.48l0 0c3.17,0 5.76,2.6 5.76,5.77l0 15.18 15.18 0c3.17,0 5.77,2.59 5.77,5.76l0 0c0,3.17 -2.6,5.76 -5.77,5.76l-15.18 0 0 15.18c0,3.17 -2.59,5.77 -5.76,5.77l0 0c-3.17,0 -5.76,-2.6 -5.76,-5.77l0 -15.18 -15.19 0c-3.16,0 -5.76,-2.59 -5.76,-5.76l0 0c0,-3.17 2.6,-5.76 5.76,-5.76l15.19 0 0 -15.18c0,-3.17 2.59,-5.77 5.76,-5.77z"/>
   <path class="fil1 str1" d="M257.08 81.9l0 0c3.17,0 5.77,2.59 5.77,5.76l0 15.18 15.18 0c3.17,0 5.76,2.6 5.76,5.77l0 0c0,3.16 -2.59,5.76 -5.76,5.76l-15.18 0 0 15.18c0,3.17 -2.6,5.76 -5.77,5.76l0 0c-3.17,0 -5.76,-2.59 -5.76,-5.76l0 -15.18 -15.18 0c-3.17,0 -5.76,-2.6 -5.76,-5.76l0 0c0,-3.17 2.59,-5.77 5.76,-5.77l15.18 0 0 -15.18c0,-3.17 2.59,-5.76 5.76,-5.76z"/>
   <path class="fil1 str1" d="M408.41 81.9l0 0c3.17,0 5.76,2.59 5.76,5.76l0 15.18 15.18 0c3.17,0 5.77,2.6 5.77,5.77l0 0c0,3.16 -2.6,5.76 -5.77,5.76l-15.18 0 0 15.18c0,3.17 -2.59,5.76 -5.76,5.76l0 0c-3.17,0 -5.76,-2.59 -5.76,-5.76l0 -15.18 -15.18 0c-3.17,0 -5.77,-2.6 -5.77,-5.76l0 0c0,-3.17 2.6,-5.77 5.77,-5.77l15.18 0 0 -15.18c0,-3.17 2.59,-5.76 5.76,-5.76z"/>
   <path class="fil1 str1" d="M29.58 60.48l0 0c3.17,0 5.77,2.59 5.77,5.76l0 15.18 15.18 0c3.17,0 5.76,2.6 5.76,5.77l0 0c0,3.17 -2.59,5.76 -5.76,5.76l-15.18 0 0 15.18c0,3.17 -2.6,5.76 -5.77,5.76l0 0c-3.16,0 -5.76,-2.59 -5.76,-5.76l0 -15.18 -15.18 0c-3.17,0 -5.76,-2.59 -5.76,-5.76l0 0c0,-3.17 2.59,-5.77 5.76,-5.77l15.18 0 0 -15.18c0,-3.17 2.6,-5.76 5.76,-5.76z"/>
   <path class="fil1 str1" d="M181.04 60.95l0 0c3.17,0 5.76,2.59 5.76,5.76l0 15.18 15.18 0c3.17,0 5.77,2.59 5.77,5.76l0 0c0,3.17 -2.6,5.76 -5.77,5.76l-15.18 0 0 15.19c0,3.17 -2.59,5.76 -5.76,5.76l0 0c-3.17,0 -5.76,-2.59 -5.76,-5.76l0 -15.19 -15.18 0c-3.17,0 -5.77,-2.59 -5.77,-5.76l0 0c0,-3.17 2.6,-5.76 5.77,-5.76l15.18 0 0 -15.18c0,-3.17 2.59,-5.76 5.76,-5.76z"/>
   <path class="fil1 str1" d="M332.11 61.25l0 0c3.17,0 5.77,2.6 5.77,5.77l0 15.18 15.18 0c3.17,0 5.76,2.59 5.76,5.76l0 0c0,3.17 -2.59,5.76 -5.76,5.76l-15.18 0 0 15.18c0,3.17 -2.6,5.77 -5.77,5.77l0 0c-3.16,0 -5.76,-2.6 -5.76,-5.77l0 -15.18 -15.18 0c-3.17,0 -5.76,-2.59 -5.76,-5.76l0 0c0,-3.17 2.59,-5.76 5.76,-5.76l15.18 0 0 -15.18c0,-3.17 2.6,-5.77 5.76,-5.77z"/>
   <path class="fil1 str1" d="M29.89 132.44l0 0c3.16,0 5.76,2.59 5.76,5.76l0 15.18 15.18 0c3.17,0 5.76,2.59 5.76,5.76l0 0c0,3.17 -2.59,5.76 -5.76,5.76l-15.18 0 0 15.19c0,3.17 -2.6,5.76 -5.76,5.76l0 0c-3.17,0 -5.77,-2.59 -5.77,-5.76l0 -15.19 -15.18 0c-3.17,0 -5.76,-2.59 -5.76,-5.76l0 0c0,-3.17 2.59,-5.76 5.76,-5.76l15.18 0 0 -15.18c0,-3.17 2.6,-5.76 5.77,-5.76z"/>
   <path class="fil1 str1" d="M181.34 132.9l0 0c3.17,0 5.76,2.6 5.76,5.76l0 15.19 15.19 0c3.16,0 5.76,2.59 5.76,5.76l0 0c0,3.17 -2.6,5.76 -5.76,5.76l-15.19 0 0 15.18c0,3.17 -2.59,5.77 -5.76,5.77l0 0c-3.17,0 -5.76,-2.6 -5.76,-5.77l0 -15.18 -15.18 0c-3.17,0 -5.77,-2.59 -5.77,-5.76l0 0c0,-3.17 2.6,-5.76 5.77,-5.76l15.18 0 0 -15.19c0,-3.16 2.59,-5.76 5.76,-5.76z"/>
   <path class="fil1 str1" d="M332.42 133.21l0 0c3.17,0 5.76,2.59 5.76,5.76l0 15.18 15.18 0c3.17,0 5.76,2.6 5.76,5.77l0 0c0,3.17 -2.59,5.76 -5.76,5.76l-15.18 0 0 15.18c0,3.17 -2.59,5.76 -5.76,5.76l0 0c-3.17,0 -5.77,-2.59 -5.77,-5.76l0 -15.18 -15.18 0c-3.17,0 -5.76,-2.59 -5.76,-5.76l0 0c0,-3.17 2.59,-5.77 5.76,-5.77l15.18 0 0 -15.18c0,-3.17 2.6,-5.76 5.77,-5.76z"/>
   <path class="fil1 str1" d="M29.51 203.63l0 0c3.17,0 5.77,2.59 5.77,5.76l0 15.18 15.18 0c3.17,0 5.76,2.59 5.76,5.76l0 0c0,3.17 -2.59,5.76 -5.76,5.76l-15.18 0 0 15.19c0,3.17 -2.6,5.76 -5.77,5.76l0 0c-3.16,0 -5.76,-2.59 -5.76,-5.76l0 -15.19 -15.18 0c-3.17,0 -5.76,-2.59 -5.76,-5.76l0 0c0,-3.17 2.59,-5.76 5.76,-5.76l15.18 0 0 -15.18c0,-3.17 2.6,-5.76 5.76,-5.76z"/>
   <path class="fil1 str1" d="M181.52 203.63l0 0c3.17,0 5.76,2.59 5.76,5.76l0 15.18 15.18 0c3.17,0 5.77,2.59 5.77,5.76l0 0c0,3.17 -2.6,5.76 -5.77,5.76l-15.18 0 0 15.19c0,3.17 -2.59,5.76 -5.76,5.76l0 0c-3.17,0 -5.76,-2.59 -5.76,-5.76l0 -15.19 -15.18 0c-3.17,0 -5.77,-2.59 -5.77,-5.76l0 0c0,-3.17 2.6,-5.76 5.77,-5.76l15.18 0 0 -15.18c0,-3.17 2.59,-5.76 5.76,-5.76z"/>
   <path class="fil1 str1" d="M332.6 203.93l0 0c3.16,0 5.76,2.6 5.76,5.77l0 15.18 15.18 0c3.17,0 5.76,2.59 5.76,5.76l0 0c0,3.17 -2.59,5.76 -5.76,5.76l-15.18 0 0 15.18c0,3.17 -2.6,5.77 -5.76,5.77l0 0c-3.17,0 -5.77,-2.6 -5.77,-5.77l0 -15.18 -15.18 0c-3.17,0 -5.76,-2.59 -5.76,-5.76l0 0c0,-3.17 2.59,-5.76 5.76,-5.76l15.18 0 0 -15.18c0,-3.17 2.6,-5.77 5.77,-5.77z"/>
   <path class="fil1 str1" d="M29.89 274.97l0 0c3.16,0 5.76,2.59 5.76,5.76l0 15.18 15.18 0c3.17,0 5.76,2.59 5.76,5.76l0 0c0,3.17 -2.59,5.76 -5.76,5.76l-15.18 0 0 15.19c0,3.17 -2.6,5.76 -5.76,5.76l0 0c-3.17,0 -5.77,-2.59 -5.77,-5.76l0 -15.19 -15.18 0c-3.17,0 -5.76,-2.59 -5.76,-5.76l0 0c0,-3.17 2.59,-5.76 5.76,-5.76l15.18 0 0 -15.18c0,-3.17 2.6,-5.76 5.77,-5.76z"/>
   <path class="fil1 str1" d="M181.89 274.97l0 0c3.17,0 5.76,2.59 5.76,5.76l0 15.18 15.18 0c3.17,0 5.77,2.59 5.77,5.76l0 0c0,3.17 -2.6,5.76 -5.77,5.76l-15.18 0 0 15.19c0,3.17 -2.59,5.76 -5.76,5.76l0 0c-3.17,0 -5.76,-2.59 -5.76,-5.76l0 -15.19 -15.18 0c-3.17,0 -5.77,-2.59 -5.77,-5.76l0 0c0,-3.17 2.6,-5.76 5.77,-5.76l15.18 0 0 -15.18c0,-3.17 2.59,-5.76 5.76,-5.76z"/>
   <path class="fil1 str1" d="M332.96 275.27l0 0c3.17,0 5.77,2.6 5.77,5.77l0 15.18 15.18 0c3.17,0 5.76,2.59 5.76,5.76l0 0c0,3.17 -2.59,5.76 -5.76,5.76l-15.18 0 0 15.18c0,3.17 -2.6,5.77 -5.77,5.77l0 0c-3.16,0 -5.76,-2.6 -5.76,-5.77l0 -15.18 -15.18 0c-3.17,0 -5.76,-2.59 -5.76,-5.76l0 0c0,-3.17 2.59,-5.76 5.76,-5.76l15.18 0 0 -15.18c0,-3.17 2.6,-5.77 5.76,-5.77z"/>
   <path class="fil1 str1" d="M29.52 346.31l0 0c3.17,0 5.76,2.59 5.76,5.76l0 15.18 15.18 0c3.17,0 5.76,2.59 5.76,5.76l0 0c0,3.17 -2.59,5.76 -5.76,5.76l-15.18 0 0 15.19c0,3.17 -2.59,5.76 -5.76,5.76l0 0c-3.17,0 -5.77,-2.59 -5.77,-5.76l0 -15.19 -15.18 0c-3.17,0 -5.76,-2.59 -5.76,-5.76l0 0c0,-3.17 2.59,-5.76 5.76,-5.76l15.18 0 0 -15.18c0,-3.17 2.6,-5.76 5.77,-5.76z"/>
   <path class="fil1 str1" d="M29.89 417.65l0 0c3.16,0 5.76,2.59 5.76,5.76l0 15.18 15.18 0c3.17,0 5.76,2.59 5.76,5.76l0 0c0,3.17 -2.59,5.76 -5.76,5.76l-15.18 0 0 15.19c0,3.17 -2.6,5.76 -5.76,5.76l0 0c-3.17,0 -5.77,-2.59 -5.77,-5.76l0 -15.19 -15.18 0c-3.17,0 -5.76,-2.59 -5.76,-5.76l0 0c0,-3.17 2.59,-5.76 5.76,-5.76l15.18 0 0 -15.18c0,-3.17 2.6,-5.76 5.77,-5.76z"/>
   <path class="fil1 str1" d="M29.96 488.99l0 0c3.17,0 5.76,2.59 5.76,5.76l0 15.18 15.18 0c3.17,0 5.77,2.59 5.77,5.76l0 0c0,3.17 -2.6,5.76 -5.77,5.76l-15.18 0 0 15.19c0,3.17 -2.59,5.76 -5.76,5.76l0 0c-3.17,0 -5.76,-2.59 -5.76,-5.76l0 -15.19 -15.18 0c-3.17,0 -5.77,-2.59 -5.77,-5.76l0 0c0,-3.17 2.6,-5.76 5.77,-5.76l15.18 0 0 -15.18c0,-3.17 2.59,-5.76 5.76,-5.76z"/>
   <path class="fil1 str1" d="M181.21 488.99l0 0c3.17,0 5.77,2.59 5.77,5.76l0 15.18 15.18 0c3.17,0 5.76,2.59 5.76,5.76l0 0c0,3.17 -2.59,5.76 -5.76,5.76l-15.18 0 0 15.19c0,3.17 -2.6,5.76 -5.77,5.76l0 0c-3.17,0 -5.76,-2.59 -5.76,-5.76l0 -15.19 -15.18 0c-3.17,0 -5.76,-2.59 -5.76,-5.76l0 0c0,-3.17 2.59,-5.76 5.76,-5.76l15.18 0 0 -15.18c0,-3.17 2.59,-5.76 5.76,-5.76z"/>
   <path class="fil1 str1" d="M332.54 488.99l0 0c3.17,0 5.76,2.59 5.76,5.76l0 15.18 15.18 0c3.17,0 5.77,2.59 5.77,5.76l0 0c0,3.17 -2.6,5.76 -5.77,5.76l-15.18 0 0 15.19c0,3.17 -2.59,5.76 -5.76,5.76l0 0c-3.17,0 -5.76,-2.59 -5.76,-5.76l0 -15.19 -15.18 0c-3.17,0 -5.77,-2.59 -5.77,-5.76l0 0c0,-3.17 2.6,-5.76 5.77,-5.76l15.18 0 0 -15.18c0,-3.17 2.59,-5.76 5.76,-5.76z"/>
   <path class="fil1 str1" d="M181.52 346.31l0 0c3.17,0 5.76,2.59 5.76,5.76l0 15.18 15.19 0c3.16,0 5.76,2.59 5.76,5.76l0 0c0,3.17 -2.6,5.76 -5.76,5.76l-15.19 0 0 15.19c0,3.17 -2.59,5.76 -5.76,5.76l0 0c-3.17,0 -5.76,-2.59 -5.76,-5.76l0 -15.19 -15.18 0c-3.17,0 -5.77,-2.59 -5.77,-5.76l0 0c0,-3.17 2.6,-5.76 5.77,-5.76l15.18 0 0 -15.18c0,-3.17 2.59,-5.76 5.76,-5.76z"/>
   <path class="fil1 str1" d="M332.6 346.61l0 0c3.17,0 5.76,2.6 5.76,5.77l0 15.18 15.18 0c3.17,0 5.76,2.59 5.76,5.76l0 0c0,3.17 -2.59,5.76 -5.76,5.76l-15.18 0 0 15.18c0,3.17 -2.59,5.77 -5.76,5.77l0 0c-3.17,0 -5.77,-2.6 -5.77,-5.77l0 -15.18 -15.18 0c-3.17,0 -5.76,-2.59 -5.76,-5.76l0 0c0,-3.17 2.59,-5.76 5.76,-5.76l15.18 0 0 -15.18c0,-3.17 2.6,-5.77 5.77,-5.77z"/>
   <path class="fil1 str1" d="M105.55 153.9l0 0c3.17,0 5.76,2.6 5.76,5.77l0 15.18 15.18 0c3.17,0 5.77,2.59 5.77,5.76l0 0c0,3.17 -2.6,5.76 -5.77,5.76l-15.18 0 0 15.19c0,3.16 -2.59,5.76 -5.76,5.76l0 0c-3.17,0 -5.76,-2.6 -5.76,-5.76l0 -15.19 -15.19 0c-3.16,0 -5.76,-2.59 -5.76,-5.76l0 0c0,-3.17 2.6,-5.76 5.76,-5.76l15.19 0 0 -15.18c0,-3.17 2.59,-5.77 5.76,-5.77z"/>
   <path class="fil1 str1" d="M257.08 153.47l0 0c3.17,0 5.77,2.6 5.77,5.77l0 15.18 15.18 0c3.17,0 5.76,2.59 5.76,5.76l0 0c0,3.17 -2.59,5.76 -5.76,5.76l-15.18 0 0 15.18c0,3.17 -2.6,5.77 -5.77,5.77l0 0c-3.17,0 -5.76,-2.6 -5.76,-5.77l0 -15.18 -15.18 0c-3.17,0 -5.76,-2.59 -5.76,-5.76l0 0c0,-3.17 2.59,-5.76 5.76,-5.76l15.18 0 0 -15.18c0,-3.17 2.59,-5.77 5.76,-5.77z"/>
   <path class="fil1 str1" d="M408.41 153.47l0 0c3.17,0 5.76,2.6 5.76,5.77l0 15.18 15.18 0c3.17,0 5.77,2.59 5.77,5.76l0 0c0,3.17 -2.6,5.76 -5.77,5.76l-15.18 0 0 15.18c0,3.17 -2.59,5.77 -5.76,5.77l0 0c-3.17,0 -5.76,-2.6 -5.76,-5.77l0 -15.18 -15.18 0c-3.17,0 -5.77,-2.59 -5.77,-5.76l0 0c0,-3.17 2.6,-5.76 5.77,-5.76l15.18 0 0 -15.18c0,-3.17 2.59,-5.77 5.76,-5.77z"/>
   <path class="fil1 str1" d="M105.55 225.24l0 0c3.17,0 5.76,2.6 5.76,5.77l0 15.18 15.18 0c3.17,0 5.77,2.59 5.77,5.76l0 0c0,3.17 -2.6,5.76 -5.77,5.76l-15.18 0 0 15.18c0,3.17 -2.59,5.77 -5.76,5.77l0 0c-3.17,0 -5.76,-2.6 -5.76,-5.77l0 -15.18 -15.19 0c-3.16,0 -5.76,-2.59 -5.76,-5.76l0 0c0,-3.17 2.6,-5.76 5.76,-5.76l15.19 0 0 -15.18c0,-3.17 2.59,-5.77 5.76,-5.77z"/>
   <path class="fil1 str1" d="M257.08 224.81l0 0c3.17,0 5.77,2.6 5.77,5.76l0 15.19 15.18 0c3.17,0 5.76,2.59 5.76,5.76l0 0c0,3.17 -2.59,5.76 -5.76,5.76l-15.18 0 0 15.18c0,3.17 -2.6,5.76 -5.77,5.76l0 0c-3.17,0 -5.76,-2.59 -5.76,-5.76l0 -15.18 -15.18 0c-3.17,0 -5.76,-2.59 -5.76,-5.76l0 0c0,-3.17 2.59,-5.76 5.76,-5.76l15.18 0 0 -15.19c0,-3.16 2.59,-5.76 5.76,-5.76z"/>
   <path class="fil1 str1" d="M408.41 224.81l0 0c3.17,0 5.76,2.6 5.76,5.76l0 15.19 15.18 0c3.17,0 5.77,2.59 5.77,5.76l0 0c0,3.17 -2.6,5.76 -5.77,5.76l-15.18 0 0 15.18c0,3.17 -2.59,5.76 -5.76,5.76l0 0c-3.17,0 -5.76,-2.59 -5.76,-5.76l0 -15.18 -15.18 0c-3.17,0 -5.77,-2.59 -5.77,-5.76l0 0c0,-3.17 2.6,-5.76 5.77,-5.76l15.18 0 0 -15.19c0,-3.16 2.59,-5.76 5.76,-5.76z"/>
   <path class="fil1 str1" d="M105.55 296.58l0 0c3.17,0 5.76,2.6 5.76,5.76l0 15.19 15.18 0c3.17,0 5.77,2.59 5.77,5.76l0 0c0,3.17 -2.6,5.76 -5.77,5.76l-15.18 0 0 15.18c0,3.17 -2.59,5.77 -5.76,5.77l0 0c-3.17,0 -5.76,-2.6 -5.76,-5.77l0 -15.18 -15.19 0c-3.16,0 -5.76,-2.59 -5.76,-5.76l0 0c0,-3.17 2.6,-5.76 5.76,-5.76l15.19 0 0 -15.19c0,-3.16 2.59,-5.76 5.76,-5.76z"/>
   <path class="fil1 str1" d="M105.55 367.92l0 0c3.17,0 5.76,2.6 5.76,5.76l0 15.19 15.18 0c3.17,0 5.77,2.59 5.77,5.76l0 0c0,3.17 -2.6,5.76 -5.77,5.76l-15.18 0 0 15.18c0,3.17 -2.59,5.77 -5.76,5.77l0 0c-3.17,0 -5.76,-2.6 -5.76,-5.77l0 -15.18 -15.19 0c-3.16,0 -5.76,-2.59 -5.76,-5.76l0 0c0,-3.17 2.6,-5.76 5.76,-5.76l15.19 0 0 -15.19c0,-3.16 2.59,-5.76 5.76,-5.76z"/>
   <path class="fil1 str1" d="M105.55 439.26l0 0c3.17,0 5.76,2.6 5.76,5.76l0 15.19 15.18 0c3.17,0 5.77,2.59 5.77,5.76l0 0c0,3.17 -2.6,5.76 -5.77,5.76l-15.18 0 0 15.18c0,3.17 -2.59,5.77 -5.76,5.77l0 0c-3.17,0 -5.76,-2.6 -5.76,-5.77l0 -15.18 -15.19 0c-3.16,0 -5.76,-2.59 -5.76,-5.76l0 0c0,-3.17 2.6,-5.76 5.76,-5.76l15.19 0 0 -15.19c0,-3.16 2.59,-5.76 5.76,-5.76z"/>
   <path class="fil1 str1" d="M256.88 438.73l0 0c3.16,0 5.76,2.59 5.76,5.76l0 15.18 15.18 0c3.17,0 5.76,2.6 5.76,5.77l0 0c0,3.17 -2.59,5.76 -5.76,5.76l-15.18 0 0 15.18c0,3.17 -2.6,5.76 -5.76,5.76l0 0c-3.17,0 -5.77,-2.59 -5.77,-5.76l0 -15.18 -15.18 0c-3.17,0 -5.76,-2.59 -5.76,-5.76l0 0c0,-3.17 2.59,-5.77 5.76,-5.77l15.18 0 0 -15.18c0,-3.17 2.6,-5.76 5.77,-5.76z"/>
   <path class="fil1 str1" d="M408.2 439l0 0c3.17,0 5.77,2.59 5.77,5.76l0 15.18 15.18 0c3.17,0 5.76,2.59 5.76,5.76l0 0c0,3.17 -2.59,5.76 -5.76,5.76l-15.18 0 0 15.19c0,3.17 -2.6,5.76 -5.77,5.76l0 0c-3.17,0 -5.76,-2.59 -5.76,-5.76l0 -15.19 -15.18 0c-3.17,0 -5.76,-2.59 -5.76,-5.76l0 0c0,-3.17 2.59,-5.76 5.76,-5.76l15.18 0 0 -15.18c0,-3.17 2.59,-5.76 5.76,-5.76z"/>
   <path class="fil1 str1" d="M256.88 367.92l0 0c3.16,0 5.76,2.6 5.76,5.76l0 15.19 15.18 0c3.17,0 5.76,2.59 5.76,5.76l0 0c0,3.17 -2.59,5.76 -5.76,5.76l-15.18 0 0 15.18c0,3.17 -2.6,5.77 -5.76,5.77l0 0c-3.17,0 -5.77,-2.6 -5.77,-5.77l0 -15.18 -15.18 0c-3.17,0 -5.76,-2.59 -5.76,-5.76l0 0c0,-3.17 2.59,-5.76 5.76,-5.76l15.18 0 0 -15.19c0,-3.16 2.6,-5.76 5.77,-5.76z"/>
   <path class="fil1 str1" d="M408.2 368.19l0 0c3.17,0 5.77,2.59 5.77,5.76l0 15.18 15.18 0c3.17,0 5.76,2.6 5.76,5.76l0 0c0,3.17 -2.59,5.77 -5.76,5.77l-15.18 0 0 15.18c0,3.17 -2.6,5.76 -5.77,5.76l0 0c-3.17,0 -5.76,-2.59 -5.76,-5.76l0 -15.18 -15.18 0c-3.17,0 -5.76,-2.6 -5.76,-5.77l0 0c0,-3.16 2.59,-5.76 5.76,-5.76l15.18 0 0 -15.18c0,-3.17 2.59,-5.76 5.76,-5.76z"/>
   <path class="fil1 str1" d="M181.21 417.65l0 0c3.17,0 5.77,2.59 5.77,5.76l0 15.18 15.18 0c3.17,0 5.76,2.59 5.76,5.76l0 0c0,3.17 -2.59,5.76 -5.76,5.76l-15.18 0 0 15.19c0,3.17 -2.6,5.76 -5.77,5.76l0 0c-3.17,0 -5.76,-2.59 -5.76,-5.76l0 -15.19 -15.18 0c-3.17,0 -5.76,-2.59 -5.76,-5.76l0 0c0,-3.17 2.59,-5.76 5.76,-5.76l15.18 0 0 -15.18c0,-3.17 2.59,-5.76 5.76,-5.76z"/>
   <path class="fil1 str1" d="M332.28 417.65l0 0c3.17,0 5.76,2.59 5.76,5.76l0 15.18 15.18 0c3.17,0 5.76,2.59 5.76,5.76l0 0c0,3.17 -2.59,5.76 -5.76,5.76l-15.18 0 0 15.19c0,3.17 -2.59,5.76 -5.76,5.76l0 0c-3.17,0 -5.77,-2.59 -5.77,-5.76l0 -15.19 -15.18 0c-3.17,0 -5.76,-2.59 -5.76,-5.76l0 0c0,-3.17 2.59,-5.76 5.76,-5.76l15.18 0 0 -15.18c0,-3.17 2.6,-5.76 5.77,-5.76z"/>
   <path class="fil1 str1" d="M257.08 296.15l0 0c3.17,0 5.77,2.59 5.77,5.76l0 15.19 15.18 0c3.17,0 5.76,2.59 5.76,5.76l0 0c0,3.17 -2.59,5.76 -5.76,5.76l-15.18 0 0 15.18c0,3.17 -2.6,5.76 -5.77,5.76l0 0c-3.17,0 -5.76,-2.59 -5.76,-5.76l0 -15.18 -15.18 0c-3.17,0 -5.76,-2.59 -5.76,-5.76l0 0c0,-3.17 2.59,-5.76 5.76,-5.76l15.18 0 0 -15.19c0,-3.17 2.59,-5.76 5.76,-5.76z"/>
   <path class="fil1 str1" d="M408.41 296.15l0 0c3.17,0 5.76,2.59 5.76,5.76l0 15.19 15.18 0c3.17,0 5.77,2.59 5.77,5.76l0 0c0,3.17 -2.6,5.76 -5.77,5.76l-15.18 0 0 15.18c0,3.17 -2.59,5.76 -5.76,5.76l0 0c-3.17,0 -5.76,-2.59 -5.76,-5.76l0 -15.18 -15.18 0c-3.17,0 -5.77,-2.59 -5.77,-5.76l0 0c0,-3.17 2.6,-5.76 5.77,-5.76l15.18 0 0 -15.19c0,-3.17 2.59,-5.76 5.76,-5.76z"/>
  </g>
  <g id="_2136034500544">
   <path class="fil1 str1" d="M1010.05 -7.36l0 0c2.98,-1.09 6.3,0.46 7.38,3.44l5.2 14.27 14.26 -5.2c2.98,-1.08 6.3,0.47 7.39,3.45l0 0c1.08,2.98 -0.47,6.3 -3.45,7.38l-14.26 5.2 5.19 14.26c1.08,2.98 -0.47,6.3 -3.44,7.39l0 0c-2.98,1.08 -6.3,-0.47 -7.39,-3.45l-5.19 -14.26 -14.27 5.19c-2.98,1.08 -6.3,-0.47 -7.38,-3.44l0 0c-1.09,-2.98 0.46,-6.3 3.44,-7.39l14.27 -5.19 -5.2 -14.27c-1.08,-2.98 0.47,-6.3 3.45,-7.38z"/>
   <path class="fil1 str1" d="M1152.53 -58.73l0 0c2.98,-1.08 6.3,0.47 7.38,3.45l5.2 14.26 14.26 -5.19c2.98,-1.08 6.31,0.47 7.39,3.44l0 0c1.08,2.98 -0.47,6.31 -3.44,7.39l-14.27 5.19 5.19 14.27c1.09,2.98 -0.46,6.3 -3.44,7.39l0 0c-2.98,1.08 -6.3,-0.47 -7.39,-3.45l-5.19 -14.27 -14.27 5.2c-2.98,1.08 -6.3,-0.47 -7.38,-3.45l0 0c-1.09,-2.97 0.46,-6.3 3.44,-7.38l14.27 -5.19 -5.19 -14.27c-1.09,-2.98 0.46,-6.3 3.44,-7.39z"/>
   <path class="fil1 str1" d="M1294.6 -110.11l0 0c2.98,-1.08 6.3,0.47 7.38,3.45l5.2 14.26 14.26 -5.19c2.98,-1.08 6.3,0.47 7.39,3.44l0 0c1.08,2.98 -0.47,6.31 -3.44,7.39l-14.27 5.19 5.19 14.27c1.08,2.98 -0.46,6.3 -3.44,7.38l0 0c-2.98,1.09 -6.3,-0.46 -7.39,-3.44l-5.19 -14.27 -14.27 5.2c-2.98,1.08 -6.3,-0.47 -7.38,-3.45l0 0c-1.09,-2.98 0.46,-6.3 3.44,-7.38l14.27 -5.2 -5.19 -14.26c-1.09,-2.98 0.46,-6.3 3.44,-7.39z"/>
   <path class="fil1 str1" d="M1087.74 -13.78l0 0c2.98,-1.09 6.3,0.46 7.39,3.44l5.19 14.27 14.27 -5.2c2.98,-1.08 6.3,0.47 7.38,3.45l0 0c1.09,2.97 -0.46,6.3 -3.44,7.38l-14.27 5.19 5.2 14.27c1.08,2.98 -0.47,6.3 -3.45,7.39l0 0c-2.98,1.08 -6.3,-0.47 -7.38,-3.45l-5.2 -14.26 -14.26 5.19c-2.98,1.08 -6.3,-0.47 -7.39,-3.45l0 0c-1.08,-2.97 0.47,-6.3 3.44,-7.38l14.27 -5.19 -5.19 -14.27c-1.08,-2.98 0.46,-6.3 3.44,-7.38z"/>
   <path class="fil1 str1" d="M1230.29 -65.21l0 0c2.97,-1.08 6.3,0.47 7.38,3.45l5.19 14.26 14.27 -5.19c2.98,-1.08 6.3,0.47 7.39,3.45l0 0c1.08,2.97 -0.47,6.3 -3.45,7.38l-14.26 5.19 5.19 14.27c1.08,2.98 -0.47,6.3 -3.45,7.38l0 0c-2.97,1.09 -6.3,-0.46 -7.38,-3.44l-5.19 -14.27 -14.27 5.2c-2.98,1.08 -6.3,-0.47 -7.39,-3.45l0 0c-1.08,-2.98 0.47,-6.3 3.45,-7.38l14.26 -5.2 -5.19 -14.26c-1.08,-2.98 0.47,-6.3 3.45,-7.39z"/>
   <path class="fil1 str1" d="M1372.49 -116.96l0 0c2.98,-1.09 6.3,0.46 7.38,3.44l5.2 14.27 14.26 -5.2c2.98,-1.08 6.3,0.47 7.39,3.45l0 0c1.08,2.98 -0.47,6.3 -3.45,7.38l-14.26 5.2 5.19 14.26c1.08,2.98 -0.47,6.3 -3.44,7.39l0 0c-2.98,1.08 -6.31,-0.47 -7.39,-3.45l-5.19 -14.26 -14.27 5.19c-2.98,1.08 -6.3,-0.47 -7.38,-3.44l0 0c-1.09,-2.98 0.46,-6.31 3.44,-7.39l14.27 -5.19 -5.2 -14.27c-1.08,-2.98 0.47,-6.3 3.45,-7.38z"/>
   <path class="fil1 str1" d="M1112.9 54.13l0 0c2.98,-1.09 6.3,0.46 7.39,3.44l5.19 14.27 14.27 -5.2c2.97,-1.08 6.3,0.47 7.38,3.45l0 0c1.09,2.98 -0.46,6.3 -3.44,7.38l-14.27 5.2 5.19 14.26c1.09,2.98 -0.46,6.31 -3.44,7.39l0 0c-2.98,1.08 -6.3,-0.47 -7.39,-3.44l-5.19 -14.27 -14.27 5.19c-2.97,1.08 -6.3,-0.47 -7.38,-3.44l0 0c-1.08,-2.98 0.47,-6.3 3.44,-7.39l14.27 -5.19 -5.19 -14.27c-1.09,-2.98 0.46,-6.3 3.44,-7.38z"/>
   <path class="fil1 str1" d="M1255.44 2.69l0 0c2.98,-1.08 6.3,0.47 7.38,3.44l5.2 14.27 14.26 -5.19c2.98,-1.09 6.31,0.46 7.39,3.44l0 0c1.08,2.98 -0.47,6.3 -3.44,7.39l-14.27 5.19 5.19 14.27c1.08,2.97 -0.47,6.3 -3.44,7.38l0 0c-2.98,1.09 -6.3,-0.46 -7.39,-3.44l-5.19 -14.27 -14.27 5.19c-2.98,1.09 -6.3,-0.46 -7.38,-3.44l0 0c-1.09,-2.98 0.46,-6.3 3.44,-7.38l14.27 -5.2 -5.2 -14.26c-1.08,-2.98 0.47,-6.31 3.45,-7.39z"/>
   <path class="fil1 str1" d="M1397.64 -49.07l0 0c2.98,-1.08 6.3,0.47 7.39,3.45l5.19 14.26 14.27 -5.19c2.97,-1.08 6.3,0.47 7.38,3.44l0 0c1.08,2.98 -0.47,6.31 -3.44,7.39l-14.27 5.19 5.19 14.27c1.09,2.98 -0.46,6.3 -3.44,7.39l0 0c-2.98,1.08 -6.3,-0.47 -7.39,-3.45l-5.19 -14.27 -14.27 5.2c-2.97,1.08 -6.3,-0.47 -7.38,-3.45l0 0c-1.09,-2.97 0.46,-6.3 3.44,-7.38l14.27 -5.19 -5.19 -14.27c-1.09,-2.98 0.46,-6.3 3.44,-7.39z"/>
   <path class="fil1 str1" d="M1034.33 60.37l0 0c2.98,-1.08 6.31,0.47 7.39,3.45l5.19 14.26 14.27 -5.19c2.98,-1.08 6.3,0.47 7.38,3.44l0 0c1.09,2.98 -0.46,6.3 -3.44,7.39l-14.27 5.19 5.2 14.27c1.08,2.98 -0.47,6.3 -3.45,7.38l0 0c-2.98,1.09 -6.3,-0.46 -7.38,-3.44l-5.2 -14.27 -14.26 5.2c-2.98,1.08 -6.3,-0.47 -7.39,-3.45l0 0c-1.08,-2.98 0.47,-6.3 3.45,-7.38l14.26 -5.2 -5.19 -14.26c-1.08,-2.98 0.47,-6.3 3.44,-7.39z"/>
   <path class="fil1 str1" d="M1176.82 9.01l0 0c2.97,-1.08 6.3,0.46 7.38,3.44l5.19 14.27 14.27 -5.19c2.98,-1.09 6.3,0.46 7.38,3.44l0 0c1.09,2.98 -0.46,6.3 -3.44,7.39l-14.27 5.19 5.2 14.27c1.08,2.97 -0.47,6.3 -3.45,7.38l0 0c-2.98,1.08 -6.3,-0.46 -7.38,-3.44l-5.19 -14.27 -14.27 5.19c-2.98,1.09 -6.3,-0.46 -7.39,-3.44l0 0c-1.08,-2.98 0.47,-6.3 3.45,-7.39l14.26 -5.19 -5.19 -14.27c-1.08,-2.97 0.47,-6.3 3.45,-7.38z"/>
   <path class="fil1 str1" d="M1318.88 -42.37l0 0c2.98,-1.09 6.31,0.46 7.39,3.44l5.19 14.27 14.27 -5.19c2.98,-1.09 6.3,0.46 7.38,3.44l0 0c1.09,2.98 -0.46,6.3 -3.44,7.38l-14.27 5.2 5.2 14.26c1.08,2.98 -0.47,6.3 -3.45,7.39l0 0c-2.98,1.08 -6.3,-0.47 -7.38,-3.45l-5.2 -14.26 -14.26 5.19c-2.98,1.08 -6.3,-0.46 -7.39,-3.44l0 0c-1.08,-2.98 0.47,-6.3 3.45,-7.39l14.26 -5.19 -5.19 -14.27c-1.08,-2.98 0.47,-6.3 3.44,-7.38z"/>
   <path class="fil1 str1" d="M1059.23 127.89l0 0c2.98,-1.09 6.3,0.46 7.38,3.44l5.2 14.27 14.26 -5.2c2.98,-1.08 6.3,0.47 7.39,3.45l0 0c1.08,2.98 -0.47,6.3 -3.45,7.38l-14.26 5.2 5.19 14.26c1.08,2.98 -0.47,6.3 -3.44,7.39l0 0c-2.98,1.08 -6.3,-0.47 -7.39,-3.45l-5.19 -14.26 -14.27 5.19c-2.98,1.08 -6.3,-0.47 -7.38,-3.44l0 0c-1.09,-2.98 0.46,-6.31 3.44,-7.39l14.27 -5.19 -5.2 -14.27c-1.08,-2.98 0.47,-6.3 3.45,-7.38z"/>
   <path class="fil1 str1" d="M1201.71 76.52l0 0c2.98,-1.08 6.3,0.47 7.38,3.45l5.2 14.26 14.26 -5.19c2.98,-1.08 6.3,0.47 7.39,3.44l0 0c1.08,2.98 -0.47,6.31 -3.45,7.39l-14.26 5.19 5.19 14.27c1.08,2.98 -0.46,6.3 -3.44,7.38l0 0c-2.98,1.09 -6.3,-0.46 -7.39,-3.44l-5.19 -14.27 -14.27 5.2c-2.98,1.08 -6.3,-0.47 -7.38,-3.45l0 0c-1.09,-2.98 0.46,-6.3 3.44,-7.38l14.27 -5.2 -5.19 -14.26c-1.09,-2.98 0.46,-6.3 3.44,-7.39z"/>
   <path class="fil1 str1" d="M1343.78 25.14l0 0c2.98,-1.08 6.3,0.47 7.38,3.45l5.2 14.26 14.26 -5.19c2.98,-1.08 6.3,0.46 7.39,3.44l0 0c1.08,2.98 -0.47,6.3 -3.45,7.39l-14.26 5.19 5.19 14.27c1.08,2.98 -0.47,6.3 -3.44,7.38l0 0c-2.98,1.09 -6.3,-0.46 -7.39,-3.44l-5.19 -14.27 -14.27 5.19c-2.98,1.09 -6.3,-0.46 -7.38,-3.44l0 0c-1.09,-2.98 0.46,-6.3 3.44,-7.38l14.27 -5.2 -5.2 -14.26c-1.08,-2.98 0.47,-6.3 3.45,-7.39z"/>
   <path class="fil1 str1" d="M1083.23 194.91l0 0c2.98,-1.08 6.3,0.46 7.38,3.44l5.2 14.27 14.26 -5.19c2.98,-1.09 6.3,0.46 7.39,3.44l0 0c1.08,2.98 -0.47,6.3 -3.45,7.38l-14.26 5.2 5.19 14.26c1.08,2.98 -0.47,6.31 -3.44,7.39l0 0c-2.98,1.08 -6.3,-0.47 -7.39,-3.44l-5.19 -14.27 -14.27 5.19c-2.98,1.09 -6.3,-0.46 -7.38,-3.44l0 0c-1.09,-2.98 0.46,-6.3 3.44,-7.39l14.27 -5.19 -5.2 -14.27c-1.08,-2.97 0.47,-6.3 3.45,-7.38z"/>
   <path class="fil1 str1" d="M1226.06 142.92l0 0c2.98,-1.08 6.31,0.47 7.39,3.44l5.19 14.27 14.27 -5.19c2.98,-1.09 6.3,0.46 7.39,3.44l0 0c1.08,2.98 -0.47,6.3 -3.45,7.39l-14.27 5.19 5.2 14.27c1.08,2.97 -0.47,6.3 -3.45,7.38l0 0c-2.97,1.09 -6.3,-0.46 -7.38,-3.44l-5.19 -14.27 -14.27 5.19c-2.98,1.09 -6.3,-0.46 -7.39,-3.44l0 0c-1.08,-2.98 0.47,-6.3 3.45,-7.39l14.26 -5.19 -5.19 -14.27c-1.08,-2.97 0.47,-6.3 3.44,-7.38z"/>
   <path class="fil1 str1" d="M1368.14 91.54l0 0c2.97,-1.09 6.3,0.46 7.38,3.44l5.19 14.27 14.27 -5.19c2.98,-1.09 6.3,0.46 7.38,3.44l0 0c1.09,2.98 -0.46,6.3 -3.44,7.38l-14.27 5.2 5.2 14.26c1.08,2.98 -0.47,6.31 -3.45,7.39l0 0c-2.98,1.08 -6.3,-0.47 -7.38,-3.44l-5.19 -14.27 -14.27 5.19c-2.98,1.09 -6.3,-0.46 -7.39,-3.44l0 0c-1.08,-2.98 0.47,-6.3 3.45,-7.39l14.26 -5.19 -5.19 -14.27c-1.08,-2.97 0.47,-6.3 3.45,-7.38z"/>
   <path class="fil1 str1" d="M1107.98 261.82l0 0c2.97,-1.08 6.3,0.47 7.38,3.44l5.19 14.27 14.27 -5.19c2.98,-1.09 6.3,0.46 7.39,3.44l0 0c1.08,2.98 -0.47,6.3 -3.45,7.39l-14.27 5.19 5.2 14.27c1.08,2.97 -0.47,6.3 -3.45,7.38l0 0c-2.97,1.09 -6.3,-0.46 -7.38,-3.44l-5.19 -14.27 -14.27 5.19c-2.98,1.09 -6.3,-0.46 -7.39,-3.44l0 0c-1.08,-2.98 0.47,-6.3 3.45,-7.39l14.26 -5.19 -5.19 -14.27c-1.08,-2.97 0.47,-6.3 3.45,-7.38z"/>
   <path class="fil1 str1" d="M1250.81 209.83l0 0c2.98,-1.08 6.3,0.47 7.39,3.44l5.19 14.27 14.27 -5.19c2.98,-1.09 6.3,0.46 7.38,3.44l0 0c1.09,2.98 -0.46,6.3 -3.44,7.39l-14.27 5.19 5.19 14.27c1.09,2.98 -0.46,6.3 -3.44,7.38l0 0c-2.98,1.09 -6.3,-0.46 -7.38,-3.44l-5.2 -14.27 -14.26 5.2c-2.98,1.08 -6.3,-0.47 -7.39,-3.45l0 0c-1.08,-2.98 0.47,-6.3 3.45,-7.38l14.26 -5.2 -5.19 -14.26c-1.08,-2.98 0.46,-6.31 3.44,-7.39z"/>
   <path class="fil1 str1" d="M1392.88 158.45l0 0c2.98,-1.08 6.3,0.47 7.39,3.44l5.19 14.27 14.27 -5.19c2.98,-1.09 6.3,0.46 7.38,3.44l0 0c1.09,2.98 -0.46,6.3 -3.44,7.39l-14.27 5.19 5.2 14.27c1.08,2.97 -0.47,6.3 -3.45,7.38l0 0c-2.98,1.09 -6.3,-0.46 -7.38,-3.44l-5.2 -14.27 -14.26 5.19c-2.98,1.09 -6.31,-0.46 -7.39,-3.44l0 0c-1.08,-2.98 0.47,-6.3 3.44,-7.39l14.27 -5.19 -5.19 -14.27c-1.09,-2.97 0.46,-6.3 3.44,-7.38z"/>
   <path class="fil1 str1" d="M1132.03 328.98l0 0c2.98,-1.08 6.3,0.47 7.38,3.45l5.2 14.26 14.26 -5.19c2.98,-1.08 6.3,0.47 7.39,3.44l0 0c1.08,2.98 -0.47,6.31 -3.45,7.39l-14.26 5.19 5.19 14.27c1.08,2.98 -0.47,6.3 -3.44,7.38l0 0c-2.98,1.09 -6.3,-0.46 -7.39,-3.44l-5.19 -14.26 -14.27 5.19c-2.98,1.08 -6.3,-0.47 -7.38,-3.45l0 0c-1.09,-2.97 0.46,-6.3 3.44,-7.38l14.27 -5.19 -5.2 -14.27c-1.08,-2.98 0.47,-6.3 3.45,-7.39z"/>
   <path class="fil1 str1" d="M1156.77 395.89l0 0c2.98,-1.08 6.31,0.47 7.39,3.45l5.19 14.26 14.27 -5.19c2.98,-1.08 6.3,0.47 7.39,3.45l0 0c1.08,2.97 -0.47,6.3 -3.45,7.38l-14.27 5.19 5.2 14.27c1.08,2.98 -0.47,6.3 -3.45,7.39l0 0c-2.98,1.08 -6.3,-0.47 -7.38,-3.45l-5.2 -14.26 -14.26 5.19c-2.98,1.08 -6.3,-0.47 -7.39,-3.45l0 0c-1.08,-2.97 0.47,-6.3 3.45,-7.38l14.26 -5.19 -5.19 -14.27c-1.08,-2.98 0.47,-6.3 3.44,-7.39z"/>
   <path class="fil1 str1" d="M1181.24 462.91l0 0c2.98,-1.09 6.31,0.46 7.39,3.44l5.19 14.27 14.27 -5.2c2.98,-1.08 6.3,0.47 7.38,3.45l0 0c1.09,2.98 -0.46,6.3 -3.44,7.38l-14.27 5.2 5.2 14.26c1.08,2.98 -0.47,6.3 -3.45,7.39l0 0c-2.98,1.08 -6.3,-0.47 -7.38,-3.45l-5.2 -14.26 -14.26 5.19c-2.98,1.08 -6.3,-0.47 -7.39,-3.44l0 0c-1.08,-2.98 0.47,-6.3 3.45,-7.39l14.26 -5.19 -5.19 -14.27c-1.08,-2.98 0.47,-6.3 3.44,-7.38z"/>
   <path class="fil1 str1" d="M1323.38 411.18l0 0c2.97,-1.09 6.3,0.46 7.38,3.44l5.19 14.27 14.27 -5.2c2.98,-1.08 6.3,0.47 7.39,3.45l0 0c1.08,2.97 -0.47,6.3 -3.45,7.38l-14.26 5.19 5.19 14.27c1.08,2.98 -0.47,6.3 -3.45,7.39l0 0c-2.97,1.08 -6.3,-0.47 -7.38,-3.45l-5.19 -14.26 -14.27 5.19c-2.98,1.08 -6.3,-0.47 -7.39,-3.45l0 0c-1.08,-2.97 0.47,-6.3 3.45,-7.38l14.27 -5.19 -5.2 -14.27c-1.08,-2.98 0.47,-6.3 3.45,-7.38z"/>
   <path class="fil1 str1" d="M1465.58 359.42l0 0c2.97,-1.09 6.3,0.46 7.38,3.44l5.19 14.27 14.27 -5.19c2.98,-1.09 6.3,0.46 7.39,3.44l0 0c1.08,2.98 -0.47,6.3 -3.45,7.39l-14.26 5.19 5.19 14.26c1.08,2.98 -0.47,6.31 -3.44,7.39l0 0c-2.98,1.08 -6.31,-0.47 -7.39,-3.44l-5.19 -14.27 -14.27 5.19c-2.98,1.09 -6.3,-0.46 -7.39,-3.44l0 0c-1.08,-2.98 0.47,-6.3 3.45,-7.39l14.27 -5.19 -5.2 -14.27c-1.08,-2.97 0.47,-6.3 3.45,-7.38z"/>
   <path class="fil1 str1" d="M1274.87 276.99l0 0c2.97,-1.08 6.3,0.47 7.38,3.45l5.19 14.27 14.27 -5.2c2.98,-1.08 6.3,0.47 7.39,3.45l0 0c1.08,2.97 -0.47,6.3 -3.45,7.38l-14.26 5.19 5.19 14.27c1.08,2.98 -0.47,6.3 -3.45,7.39l0 0c-2.97,1.08 -6.3,-0.47 -7.38,-3.45l-5.19 -14.26 -14.27 5.19c-2.98,1.08 -6.3,-0.47 -7.39,-3.45l0 0c-1.08,-2.97 0.47,-6.3 3.45,-7.38l14.26 -5.19 -5.19 -14.27c-1.08,-2.98 0.47,-6.3 3.45,-7.39z"/>
   <path class="fil1 str1" d="M1416.94 225.61l0 0c2.97,-1.08 6.3,0.47 7.38,3.45l5.19 14.26 14.27 -5.19c2.98,-1.08 6.3,0.47 7.39,3.44l0 0c1.08,2.98 -0.47,6.31 -3.45,7.39l-14.27 5.19 5.2 14.27c1.08,2.98 -0.47,6.3 -3.45,7.38l0 0c-2.97,1.09 -6.3,-0.46 -7.38,-3.44l-5.19 -14.27 -14.27 5.2c-2.98,1.08 -6.3,-0.47 -7.39,-3.45l0 0c-1.08,-2.97 0.47,-6.3 3.45,-7.38l14.26 -5.19 -5.19 -14.27c-1.08,-2.98 0.47,-6.3 3.45,-7.39z"/>
   <path class="fil1 str1" d="M1137.67 122.18l0 0c2.98,-1.08 6.3,0.47 7.39,3.44l5.19 14.27 14.27 -5.19c2.97,-1.09 6.3,0.46 7.38,3.44l0 0c1.08,2.98 -0.46,6.3 -3.44,7.39l-14.27 5.19 5.19 14.27c1.09,2.98 -0.46,6.3 -3.44,7.38l0 0c-2.98,1.09 -6.3,-0.46 -7.39,-3.44l-5.19 -14.27 -14.26 5.2c-2.98,1.08 -6.31,-0.47 -7.39,-3.45l0 0c-1.08,-2.98 0.47,-6.3 3.44,-7.38l14.27 -5.2 -5.19 -14.26c-1.09,-2.98 0.46,-6.31 3.44,-7.39z"/>
   <path class="fil1 str1" d="M1279.92 69.95l0 0c2.98,-1.09 6.3,0.46 7.38,3.44l5.2 14.27 14.26 -5.19c2.98,-1.09 6.31,0.46 7.39,3.44l0 0c1.08,2.98 -0.47,6.3 -3.44,7.39l-14.27 5.19 5.19 14.26c1.08,2.98 -0.47,6.31 -3.44,7.39l0 0c-2.98,1.08 -6.3,-0.47 -7.39,-3.44l-5.19 -14.27 -14.27 5.19c-2.98,1.09 -6.3,-0.46 -7.38,-3.44l0 0c-1.09,-2.98 0.46,-6.3 3.44,-7.39l14.27 -5.19 -5.2 -14.27c-1.08,-2.97 0.47,-6.3 3.45,-7.38z"/>
   <path class="fil1 str1" d="M1422.12 18.19l0 0c2.98,-1.08 6.3,0.47 7.39,3.44l5.19 14.27 14.27 -5.19c2.97,-1.09 6.3,0.46 7.38,3.44l0 0c1.08,2.98 -0.47,6.3 -3.44,7.39l-14.27 5.19 5.19 14.27c1.09,2.98 -0.46,6.3 -3.44,7.38l0 0c-2.98,1.09 -6.3,-0.46 -7.39,-3.44l-5.19 -14.27 -14.27 5.2c-2.97,1.08 -6.3,-0.47 -7.38,-3.45l0 0c-1.09,-2.98 0.46,-6.3 3.44,-7.38l14.27 -5.2 -5.19 -14.26c-1.09,-2.98 0.46,-6.31 3.44,-7.39z"/>
   <path class="fil1 str1" d="M1162.07 189.22l0 0c2.98,-1.09 6.3,0.46 7.39,3.44l5.19 14.27 14.27 -5.2c2.97,-1.08 6.3,0.47 7.38,3.45l0 0c1.08,2.98 -0.47,6.3 -3.44,7.38l-14.27 5.2 5.19 14.26c1.09,2.98 -0.46,6.31 -3.44,7.39l0 0c-2.98,1.08 -6.3,-0.47 -7.39,-3.44l-5.19 -14.27 -14.27 5.19c-2.97,1.09 -6.3,-0.46 -7.38,-3.44l0 0c-1.09,-2.98 0.46,-6.3 3.44,-7.39l14.27 -5.19 -5.19 -14.27c-1.09,-2.98 0.46,-6.3 3.44,-7.38z"/>
   <path class="fil1 str1" d="M1304.32 136.98l0 0c2.98,-1.08 6.3,0.47 7.38,3.45l5.2 14.27 14.26 -5.2c2.98,-1.08 6.3,0.47 7.39,3.45l0 0c1.08,2.97 -0.47,6.3 -3.45,7.38l-14.26 5.19 5.19 14.27c1.08,2.98 -0.47,6.3 -3.44,7.39l0 0c-2.98,1.08 -6.31,-0.47 -7.39,-3.45l-5.19 -14.26 -14.27 5.19c-2.98,1.08 -6.3,-0.47 -7.38,-3.45l0 0c-1.09,-2.97 0.46,-6.3 3.44,-7.38l14.27 -5.19 -5.2 -14.27c-1.08,-2.98 0.47,-6.3 3.45,-7.39z"/>
   <path class="fil1 str1" d="M1446.52 85.23l0 0c2.98,-1.09 6.3,0.46 7.38,3.44l5.2 14.27 14.26 -5.2c2.98,-1.08 6.31,0.47 7.39,3.45l0 0c1.08,2.98 -0.47,6.3 -3.44,7.38l-14.27 5.2 5.19 14.26c1.09,2.98 -0.46,6.31 -3.44,7.39l0 0c-2.98,1.08 -6.3,-0.47 -7.39,-3.44l-5.19 -14.27 -14.27 5.19c-2.98,1.09 -6.3,-0.46 -7.38,-3.44l0 0c-1.09,-2.98 0.46,-6.3 3.44,-7.39l14.27 -5.19 -5.19 -14.27c-1.09,-2.98 0.46,-6.3 3.44,-7.38z"/>
   <path class="fil1 str1" d="M1186.47 256.25l0 0c2.98,-1.08 6.3,0.47 7.39,3.45l5.19 14.27 14.26 -5.2c2.98,-1.08 6.31,0.47 7.39,3.45l0 0c1.08,2.97 -0.47,6.3 -3.44,7.38l-14.27 5.19 5.19 14.27c1.09,2.98 -0.46,6.3 -3.44,7.39l0 0c-2.98,1.08 -6.3,-0.47 -7.39,-3.45l-5.19 -14.26 -14.27 5.19c-2.97,1.08 -6.3,-0.47 -7.38,-3.44l0 0c-1.09,-2.98 0.46,-6.31 3.44,-7.39l14.27 -5.19 -5.19 -14.27c-1.09,-2.98 0.46,-6.3 3.44,-7.39z"/>
   <path class="fil1 str1" d="M1210.87 323.29l0 0c2.98,-1.08 6.3,0.47 7.39,3.45l5.19 14.26 14.26 -5.19c2.98,-1.08 6.31,0.47 7.39,3.44l0 0c1.08,2.98 -0.47,6.31 -3.44,7.39l-14.27 5.19 5.19 14.27c1.09,2.98 -0.46,6.3 -3.44,7.38l0 0c-2.98,1.09 -6.3,-0.46 -7.39,-3.44l-5.19 -14.27 -14.27 5.2c-2.97,1.08 -6.3,-0.47 -7.38,-3.45l0 0c-1.09,-2.98 0.46,-6.3 3.44,-7.38l14.27 -5.2 -5.19 -14.26c-1.09,-2.98 0.46,-6.3 3.44,-7.39z"/>
   <path class="fil1 str1" d="M1235.27 390.33l0 0c2.98,-1.08 6.3,0.47 7.38,3.44l5.2 14.27 14.26 -5.19c2.98,-1.09 6.31,0.46 7.39,3.44l0 0c1.08,2.98 -0.47,6.3 -3.44,7.39l-14.27 5.19 5.19 14.27c1.09,2.97 -0.46,6.3 -3.44,7.38l0 0c-2.98,1.09 -6.3,-0.46 -7.39,-3.44l-5.19 -14.27 -14.27 5.19c-2.98,1.09 -6.3,-0.46 -7.38,-3.44l0 0c-1.09,-2.98 0.46,-6.3 3.44,-7.38l14.27 -5.2 -5.19 -14.26c-1.09,-2.98 0.46,-6.31 3.44,-7.39z"/>
   <path class="fil1 str1" d="M1377.29 338.07l0 0c2.98,-1.08 6.3,0.47 7.38,3.45l5.2 14.26 14.26 -5.19c2.98,-1.08 6.3,0.47 7.39,3.44l0 0c1.08,2.98 -0.47,6.31 -3.45,7.39l-14.26 5.19 5.19 14.27c1.08,2.98 -0.47,6.3 -3.44,7.39l0 0c-2.98,1.08 -6.31,-0.47 -7.39,-3.45l-5.19 -14.27 -14.27 5.2c-2.98,1.08 -6.3,-0.47 -7.38,-3.45l0 0c-1.09,-2.97 0.46,-6.3 3.44,-7.38l14.27 -5.19 -5.2 -14.27c-1.08,-2.98 0.47,-6.3 3.45,-7.39z"/>
   <path class="fil1 str1" d="M1519.58 286.57l0 0c2.98,-1.09 6.3,0.46 7.39,3.44l5.19 14.27 14.27 -5.2c2.97,-1.08 6.3,0.47 7.38,3.45l0 0c1.08,2.98 -0.46,6.3 -3.44,7.38l-14.27 5.2 5.19 14.26c1.09,2.98 -0.46,6.3 -3.44,7.39l0 0c-2.98,1.08 -6.3,-0.47 -7.39,-3.45l-5.19 -14.26 -14.27 5.19c-2.97,1.08 -6.3,-0.47 -7.38,-3.45l0 0c-1.08,-2.97 0.46,-6.3 3.44,-7.38l14.27 -5.19 -5.19 -14.27c-1.09,-2.98 0.46,-6.3 3.44,-7.38z"/>
   <path class="fil1 str1" d="M1353.07 271.54l0 0c2.98,-1.09 6.3,0.46 7.39,3.44l5.19 14.27 14.27 -5.2c2.97,-1.08 6.3,0.47 7.38,3.45l0 0c1.08,2.98 -0.47,6.3 -3.44,7.38l-14.27 5.2 5.19 14.26c1.09,2.98 -0.46,6.3 -3.44,7.39l0 0c-2.98,1.08 -6.3,-0.47 -7.39,-3.45l-5.19 -14.26 -14.27 5.19c-2.97,1.08 -6.3,-0.47 -7.38,-3.44l0 0c-1.09,-2.98 0.46,-6.31 3.44,-7.39l14.27 -5.19 -5.19 -14.27c-1.09,-2.98 0.46,-6.3 3.44,-7.38z"/>
   <path class="fil1 str1" d="M1495.36 220.03l0 0c2.98,-1.09 6.3,0.46 7.39,3.44l5.19 14.27 14.27 -5.19c2.98,-1.09 6.3,0.46 7.38,3.44l0 0c1.09,2.98 -0.46,6.3 -3.44,7.38l-14.27 5.2 5.19 14.26c1.09,2.98 -0.46,6.31 -3.44,7.39l0 0c-2.98,1.08 -6.3,-0.47 -7.38,-3.44l-5.2 -14.27 -14.26 5.19c-2.98,1.09 -6.3,-0.46 -7.39,-3.44l0 0c-1.08,-2.98 0.47,-6.3 3.45,-7.39l14.26 -5.19 -5.19 -14.27c-1.08,-2.97 0.46,-6.3 3.44,-7.38z"/>
   <path class="fil1 str1" d="M1298.98 344.14l0 0c2.97,-1.09 6.3,0.46 7.38,3.44l5.19 14.27 14.27 -5.19c2.98,-1.09 6.3,0.46 7.39,3.44l0 0c1.08,2.98 -0.47,6.3 -3.45,7.38l-14.26 5.2 5.19 14.26c1.08,2.98 -0.47,6.3 -3.45,7.39l0 0c-2.97,1.08 -6.3,-0.47 -7.38,-3.44l-5.19 -14.27 -14.27 5.19c-2.98,1.08 -6.3,-0.46 -7.38,-3.44l0 0c-1.09,-2.98 0.46,-6.3 3.44,-7.39l14.26 -5.19 -5.19 -14.27c-1.08,-2.98 0.47,-6.3 3.45,-7.38z"/>
   <path class="fil1 str1" d="M1440.93 292.47l0 0c2.98,-1.08 6.3,0.47 7.38,3.44l5.2 14.27 14.26 -5.19c2.98,-1.08 6.31,0.46 7.39,3.44l0 0c1.08,2.98 -0.47,6.3 -3.44,7.39l-14.27 5.19 5.19 14.27c1.08,2.98 -0.47,6.3 -3.44,7.38l0 0c-2.98,1.09 -6.3,-0.46 -7.39,-3.44l-5.19 -14.27 -14.27 5.19c-2.98,1.09 -6.3,-0.46 -7.38,-3.44l0 0c-1.09,-2.98 0.46,-6.3 3.44,-7.38l14.27 -5.2 -5.2 -14.26c-1.08,-2.98 0.47,-6.3 3.45,-7.39z"/>
   <path class="fil1 str1" d="M1328.72 204.02l0 0c2.98,-1.08 6.3,0.47 7.38,3.45l5.2 14.26 14.26 -5.19c2.98,-1.08 6.3,0.47 7.39,3.44l0 0c1.08,2.98 -0.47,6.31 -3.45,7.39l-14.26 5.19 5.19 14.27c1.08,2.98 -0.47,6.3 -3.44,7.38l0 0c-2.98,1.09 -6.31,-0.46 -7.39,-3.44l-5.19 -14.27 -14.27 5.2c-2.98,1.08 -6.3,-0.47 -7.38,-3.45l0 0c-1.09,-2.98 0.46,-6.3 3.44,-7.38l14.27 -5.2 -5.2 -14.26c-1.08,-2.98 0.47,-6.3 3.45,-7.39z"/>
   <path class="fil1 str1" d="M1470.92 152.26l0 0c2.98,-1.08 6.3,0.47 7.38,3.45l5.2 14.27 14.26 -5.2c2.98,-1.08 6.3,0.47 7.39,3.45l0 0c1.08,2.97 -0.47,6.3 -3.45,7.38l-14.26 5.19 5.19 14.27c1.08,2.98 -0.46,6.3 -3.44,7.39l0 0c-2.98,1.08 -6.3,-0.47 -7.39,-3.45l-5.19 -14.26 -14.27 5.19c-2.98,1.08 -6.3,-0.47 -7.38,-3.44l0 0c-1.09,-2.98 0.46,-6.31 3.44,-7.39l14.27 -5.19 -5.19 -14.27c-1.09,-2.98 0.46,-6.3 3.44,-7.39z"/>
  </g>
  <path class="fil1 str1" d="M1762.15 504.26l0 0c4.51,0 8.2,3.7 8.2,8.21l0 21.63 21.64 0c4.51,0 8.21,3.7 8.21,8.21l0 0c0,4.52 -3.7,8.21 -8.21,8.21l-21.64 0 0 21.64c0,4.51 -3.69,8.2 -8.2,8.2l0 0c-4.52,0 -8.21,-3.69 -8.21,-8.2l0 -21.64 -21.64 0c-4.51,0 -8.21,-3.69 -8.21,-8.21l0 0c0,-4.51 3.7,-8.21 8.21,-8.21l21.64 0 0 -21.63c0,-4.51 3.69,-8.21 8.21,-8.21z"/>
  <path class="fil1 str1" d="M1696.2 -52.71l0 0c4.52,0 8.21,3.7 8.21,8.21l0 21.63 21.63 0c4.52,0 8.21,3.7 8.21,8.21l0 0c0,4.52 -3.69,8.21 -8.21,8.21l-21.63 0 0 21.63c0,4.52 -3.69,8.21 -8.21,8.21l0 0c-4.52,0 -8.21,-3.69 -8.21,-8.21l0 -21.63 -21.63 0c-4.52,0 -8.21,-3.69 -8.21,-8.21l0 0c0,-4.51 3.69,-8.21 8.21,-8.21l21.63 0 0 -21.63c0,-4.51 3.69,-8.21 8.21,-8.21z"/>
  <path class="fil1 str1" d="M1675.89 537.4l0 0c4.51,0 8.21,3.69 8.21,8.21l0 21.63 21.63 0c4.51,0 8.21,3.69 8.21,8.21l0 0c0,4.51 -3.7,8.21 -8.21,8.21l-21.63 0 0 21.63c0,4.51 -3.7,8.21 -8.21,8.21l0 0c-4.52,0 -8.21,-3.7 -8.21,-8.21l0 -21.63 -21.63 0c-4.52,0 -8.21,-3.7 -8.21,-8.21l0 0c0,-4.52 3.69,-8.21 8.21,-8.21l21.63 0 0 -21.63c0,-4.52 3.69,-8.21 8.21,-8.21z"/>
  <path class="fil1 str1" d="M1597.44 586.15l0 0c4.52,0 8.21,3.7 8.21,8.21l0 21.64 21.63 0c4.52,0 8.21,3.69 8.21,8.2l0 0c0,4.52 -3.69,8.21 -8.21,8.21l-21.63 0 0 21.64c0,4.51 -3.69,8.21 -8.21,8.21l0 0c-4.51,0 -8.21,-3.7 -8.21,-8.21l0 -21.64 -21.63 0c-4.51,0 -8.21,-3.69 -8.21,-8.21l0 0c0,-4.51 3.7,-8.2 8.21,-8.2l21.63 0 0 -21.64c0,-4.51 3.7,-8.21 8.21,-8.21z"/>
  <path class="fil1 str1" d="M1533.06 656.79l0 0c4.52,0 8.21,3.69 8.21,8.21l0 21.63 21.63 0c4.52,0 8.21,3.69 8.21,8.21l0 0c0,4.51 -3.69,8.21 -8.21,8.21l-21.63 0 0 21.63c0,4.51 -3.69,8.21 -8.21,8.21l0 0c-4.52,0 -8.21,-3.7 -8.21,-8.21l0 -21.63 -21.63 0c-4.52,0 -8.21,-3.7 -8.21,-8.21l0 0c0,-4.52 3.69,-8.21 8.21,-8.21l21.63 0 0 -21.63c0,-4.52 3.69,-8.21 8.21,-8.21z"/>
  <path class="fil1 str1" d="M1482.74 739.92l0 0c4.52,0 8.21,3.69 8.21,8.21l0 21.63 21.63 0c4.52,0 8.21,3.7 8.21,8.21l0 0c0,4.52 -3.69,8.21 -8.21,8.21l-21.63 0 0 21.63c0,4.52 -3.69,8.21 -8.21,8.21l0 0c-4.52,0 -8.21,-3.69 -8.21,-8.21l0 -21.63 -21.63 0c-4.52,0 -8.21,-3.69 -8.21,-8.21l0 0c0,-4.51 3.69,-8.21 8.21,-8.21l21.63 0 0 -21.63c0,-4.52 3.69,-8.21 8.21,-8.21z"/>
  <path class="fil1 str1" d="M1438.67 837.12l0 0c4.52,0 8.21,3.69 8.21,8.21l0 21.63 21.63 0c4.52,0 8.21,3.69 8.21,8.21l0 0c0,4.51 -3.69,8.21 -8.21,8.21l-21.63 0 0 21.63c0,4.51 -3.69,8.21 -8.21,8.21l0 0c-4.52,0 -8.21,-3.7 -8.21,-8.21l0 -21.63 -21.63 0c-4.52,0 -8.21,-3.7 -8.21,-8.21l0 0c0,-4.52 3.69,-8.21 8.21,-8.21l21.63 0 0 -21.63c0,-4.52 3.69,-8.21 8.21,-8.21z"/>
  <path class="fil1 str1" d="M1425.85 942.12l0 0c4.52,0 8.21,3.7 8.21,8.21l0 21.64 21.63 0c4.52,0 8.21,3.69 8.21,8.2l0 0c0,4.52 -3.69,8.21 -8.21,8.21l-21.63 0 0 21.64c0,4.51 -3.69,8.21 -8.21,8.21l0 0c-4.52,0 -8.21,-3.7 -8.21,-8.21l0 -21.64 -21.63 0c-4.52,0 -8.21,-3.69 -8.21,-8.21l0 0c0,-4.51 3.69,-8.2 8.21,-8.2l21.63 0 0 -21.64c0,-4.51 3.69,-8.21 8.21,-8.21z"/>
  <path class="fil1 str1" d="M1438.03 1037.76l0 0c4.52,0 8.21,3.69 8.21,8.21l0 21.63 21.63 0c4.52,0 8.21,3.69 8.21,8.21l0 0c0,4.51 -3.69,8.21 -8.21,8.21l-21.63 0 0 21.63c0,4.51 -3.69,8.21 -8.21,8.21l0 0c-4.52,0 -8.21,-3.7 -8.21,-8.21l0 -21.63 -21.63 0c-4.52,0 -8.21,-3.7 -8.21,-8.21l0 0c0,-4.52 3.69,-8.21 8.21,-8.21l21.63 0 0 -21.63c0,-4.52 3.69,-8.21 8.21,-8.21z"/>
  <g id="_2100809194144">
   <rect class="fil1 str1" x="1791.47" y="47.88" width="40.05" height="139.56" rx="20.03" ry="20.75"/>
   <circle class="fil1 str1" cx="1762.8" cy="73.92" r="14.02"/>
   <circle class="fil1 str1" cx="1762.68" cy="115.35" r="14.02"/>
   <circle class="fil1 str1" cx="1762.55" cy="156.79" r="14.02"/>
  </g>
  <g id="_2100809193728">
   <rect class="fil1 str1" transform="matrix(1.02866E-14 0.388399 0.402338 -1.06557E-14 206.956 899.219)" width="103.12" height="346.88" rx="51.56" ry="51.56"/>
   <circle class="fil1 str1" transform="matrix(8.80063E-15 0.332293 0.332293 -8.80063E-15 232.991 870.557)" r="42.19"/>
   <circle class="fil1 str1" transform="matrix(8.80063E-15 0.332293 0.332293 -8.80063E-15 274.424 870.429)" r="42.19"/>
   <circle class="fil1 str1" transform="matrix(8.80063E-15 0.332293 0.332293 -8.80063E-15 315.857 870.301)" r="42.19"/>
  </g>
  <polygon class="fil1 str1" points="1238.02,1032.44 1252.47,1046.89 1266.92,1061.34 1252.47,1075.8 1238.02,1090.25 1223.56,1075.8 1209.11,1061.34 1223.56,1046.89 "/>
  <polygon class="fil1 str1" points="1099.81,638.59 1149.25,661.64 1198.69,684.7 1175.64,734.14 1152.58,783.59 1103.14,760.53 1053.69,737.47 1076.75,688.03 "/>
  <polygon class="fil1 str1" points="713.62,391.42 728.07,405.87 742.52,420.32 728.07,434.77 713.62,449.23 699.17,434.77 684.71,420.32 699.17,405.87 "/>
  <path class="fil1 str1" d="M737.79 841.47c-46.58,0 -84.37,37.79 -84.37,84.37 0,46.59 37.79,84.38 84.37,84.38 0,28.12 0,56.25 0,84.38 -93.17,0 -168.75,-75.58 -168.75,-168.76 0,-93.17 75.58,-168.75 168.75,-168.75 0,28.13 0,0 0,84.38zm1.25 -507.27c-46.59,0 -84.37,37.78 -84.37,84.37 0,46.59 37.78,84.38 84.37,84.38 0,28.12 0,56.25 0,84.37 -93.17,0 -168.75,-75.57 -168.75,-168.75 0,-93.17 75.58,-168.75 168.75,-168.75 0,28.12 0,0 0,84.38zm1.39 -84.83c46.59,0 84.37,-37.79 84.37,-84.38 0,-46.59 -37.78,-84.37 -84.37,-84.37 0,-28.13 0,-56.25 0,-84.38 93.17,0 168.75,75.58 168.75,168.75 0,93.18 -75.58,168.75 -168.75,168.75 0,-28.12 0,0 0,-84.37zm-1.25 507.27c46.59,0 84.38,-37.79 84.38,-84.37 0,-46.59 -37.79,-84.38 -84.38,-84.38 0,-28.12 0,-56.25 0,-84.37 93.17,0 168.75,75.57 168.75,168.75 0,93.17 -75.58,168.75 -168.75,168.75 0,-28.13 0,0 0,-84.38z"/>
 </g>
</svg>
