<?xml version="1.0" encoding="UTF-8"?>
<!DOCTYPE svg PUBLIC "-//W3C//DTD SVG 1.1//EN" "http://www.w3.org/Graphics/SVG/1.1/DTD/svg11.dtd">
<!-- Creator: CorelDRAW 2018 (64 Bit) -->
<svg xmlns="http://www.w3.org/2000/svg" xml:space="preserve" width="600px" height="600px" version="1.1" style="shape-rendering:geometricPrecision; text-rendering:geometricPrecision; image-rendering:optimizeQuality; fill-rule:evenodd; clip-rule:evenodd"
viewBox="0 0 600 600"
 xmlns:xlink="http://www.w3.org/1999/xlink">
 <defs>
  <style type="text/css">
   <![CDATA[
    .fil0 {fill:#402E32}
    .fil2 {fill:#754948}
    .fil1 {fill:#C27B57}
    .fil3 {fill:#402E32;fill-rule:nonzero}
   ]]>
  </style>
 </defs>
 <g id="Camada_x0020_1">
  <metadata id="CorelCorpID_0Corel-Layer"/>
  <g id="_2778293028688">
   <path class="fil0" d="M73.64 159.09c25.09,0 45.43,20.34 45.43,45.43 0,25.1 -20.34,45.43 -45.43,45.43 -25.1,0 -45.43,-20.33 -45.43,-45.43 0,-25.09 20.33,-45.43 45.43,-45.43z"/>
   <path class="fil0" d="M108.05 376.44c38.28,0 69.3,31.02 69.3,69.3 0,38.28 -31.02,69.29 -69.3,69.29 -38.28,0 -69.29,-31.01 -69.29,-69.29 0,-38.28 31.01,-69.3 69.29,-69.3z"/>
   <path class="fil0" d="M276.92 67.06c12.99,0 23.51,10.52 23.51,23.51 0,12.99 -10.52,23.51 -23.51,23.51 -12.99,0 -23.51,-10.52 -23.51,-23.51 0,-12.99 10.52,-23.51 23.51,-23.51z"/>
   <path class="fil0" d="M335.01 9.45c12.99,0 23.51,10.52 23.51,23.51 0,12.99 -10.52,23.51 -23.51,23.51 -12.99,0 -23.51,-10.52 -23.51,-23.51 0,-12.99 10.52,-23.51 23.51,-23.51z"/>
   <path class="fil1" d="M99.81 312.4c12.99,0 23.51,10.52 23.51,23.51 0,12.99 -10.52,23.51 -23.51,23.51 -12.99,0 -23.51,-10.52 -23.51,-23.51 0,-12.99 10.52,-23.51 23.51,-23.51z"/>
   <path class="fil2" d="M179.5 124.02c12.99,0 23.51,10.53 23.51,23.52 0,12.99 -10.52,23.51 -23.51,23.51 -12.99,0 -23.51,-10.52 -23.51,-23.51 0,-12.99 10.52,-23.52 23.51,-23.52z"/>
   <path class="fil1" d="M207.63 510.52c12.99,0 23.51,10.52 23.51,23.51 0,12.99 -10.52,23.51 -23.51,23.51 -12.99,0 -23.51,-10.52 -23.51,-23.51 0,-12.99 10.52,-23.51 23.51,-23.51z"/>
   <path class="fil2" d="M42.93 271.25c12.99,0 23.51,10.52 23.51,23.51 0,12.99 -10.52,23.51 -23.51,23.51 -12.99,0 -23.51,-10.52 -23.51,-23.51 0,-12.99 10.52,-23.51 23.51,-23.51z"/>
   <path class="fil2" d="M339.05 520.2c4.58,0 8.29,3.7 8.29,8.29 0,4.58 -3.71,8.28 -8.29,8.28 -4.58,0 -8.28,-3.7 -8.28,-8.28 0,-4.59 3.7,-8.29 8.28,-8.29z"/>
   <path class="fil0" d="M131.12 247.2c4.58,0 8.29,3.71 8.29,8.29 0,4.58 -3.71,8.28 -8.29,8.28 -4.58,0 -8.29,-3.7 -8.29,-8.28 0,-4.58 3.71,-8.29 8.29,-8.29z"/>
   <path class="fil1" d="M196.13 54.25c4.58,0 8.29,3.71 8.29,8.29 0,4.58 -3.71,8.29 -8.29,8.29 -4.58,0 -8.29,-3.71 -8.29,-8.29 0,-4.58 3.71,-8.29 8.29,-8.29z"/>
   <path class="fil2" d="M548.79 398.21c11.91,0 21.56,9.66 21.56,21.57 0,11.91 -9.65,21.56 -21.56,21.56 -11.91,0 -21.57,-9.65 -21.57,-21.56 0,-11.91 9.66,-21.57 21.57,-21.57z"/>
   <path class="fil2" d="M422.9 27.58c24.68,0 44.68,20.01 44.68,44.68 0,24.67 -20,44.67 -44.68,44.67 -24.66,0 -44.66,-20 -44.66,-44.67 0,-24.67 20,-44.68 44.66,-44.68z"/>
   <path class="fil1" d="M559.43 273.36c12.99,0 23.51,10.52 23.51,23.51 0,12.99 -10.52,23.52 -23.51,23.52 -12.99,0 -23.51,-10.53 -23.51,-23.52 0,-12.99 10.52,-23.51 23.51,-23.51z"/>
   <path class="fil1" d="M490.2 463.93c4.58,0 8.29,3.71 8.29,8.29 0,4.58 -3.71,8.29 -8.29,8.29 -4.58,0 -8.29,-3.71 -8.29,-8.29 0,-4.58 3.71,-8.29 8.29,-8.29z"/>
   <path class="fil0" d="M464.9 128.99c4.58,0 8.29,3.7 8.29,8.29 0,4.58 -3.71,8.28 -8.29,8.28 -4.58,0 -8.29,-3.7 -8.29,-8.28 0,-4.59 3.71,-8.29 8.29,-8.29z"/>
   <path class="fil0" d="M535.19 150.21c12.99,0 23.51,10.52 23.51,23.51 0,12.99 -10.52,23.51 -23.51,23.51 -12.99,0 -23.51,-10.52 -23.51,-23.51 0,-12.99 10.52,-23.51 23.51,-23.51z"/>
   <path class="fil0" d="M481.71 503.03c21.37,0 38.7,17.33 38.7,38.7 0,21.38 -17.33,38.71 -38.7,38.71 -21.38,0 -38.71,-17.33 -38.71,-38.71 0,-21.37 17.33,-38.7 38.71,-38.7z"/>
   <path class="fil3" d="M333.13 475.63c-35.67,0 -68.43,-7.25 -98.28,-21.77 -29.85,-14.51 -53.51,-34.62 -70.98,-60.34 -17.48,-25.71 -26.21,-54.82 -26.21,-87.31 0,-32.19 8.73,-61.13 26.21,-86.85 17.47,-25.71 41.13,-45.83 70.98,-60.34 29.85,-14.51 62.61,-21.77 98.28,-21.77 36.04,0 68.89,7.26 98.56,21.77 29.67,14.51 53.14,34.63 70.43,60.34 17.29,25.72 25.94,54.66 25.94,86.85 0,32.49 -8.65,61.6 -25.94,87.31 -17.29,25.72 -40.86,45.83 -70.7,60.34 -29.85,14.52 -62.61,21.77 -98.29,21.77zm0 -59.16c22.94,0 43.14,-4.49 60.61,-13.48 17.47,-9 31.12,-21.85 40.95,-38.57 9.83,-16.73 14.74,-36.13 14.74,-58.21 0,-22.09 -4.91,-41.42 -14.74,-57.98 -9.83,-16.56 -23.48,-29.26 -40.95,-38.1 -17.47,-8.83 -37.67,-13.25 -60.61,-13.25 -22.93,0 -43.22,4.42 -60.88,13.25 -17.65,8.84 -31.4,21.54 -41.22,38.1 -9.83,16.56 -14.75,35.89 -14.75,57.98 0,22.08 4.92,41.48 14.75,58.21 9.82,16.72 23.57,29.57 41.22,38.57 17.66,8.99 37.95,13.48 60.88,13.48z"/>
  </g>
 </g>
</svg>
