<?xml version="1.0" encoding="UTF-8"?>
<!DOCTYPE svg PUBLIC "-//W3C//DTD SVG 1.1//EN" "http://www.w3.org/Graphics/SVG/1.1/DTD/svg11.dtd">
<!-- Creator: CorelDRAW 2018 (64 Bit) -->
<svg xmlns="http://www.w3.org/2000/svg" xml:space="preserve" width="600px" height="400px" version="1.1" style="shape-rendering:geometricPrecision; text-rendering:geometricPrecision; image-rendering:optimizeQuality; fill-rule:evenodd; clip-rule:evenodd"
viewBox="0 0 600 400"
 xmlns:xlink="http://www.w3.org/1999/xlink">
 <defs>
  <style type="text/css">
   <![CDATA[
    .fil1 {fill:#C27B57}
    .fil0 {fill:#C27B57;fill-rule:nonzero}
   ]]>
  </style>
 </defs>
 <g id="Camada_x0020_1">
  <metadata id="CorelCorpID_0Corel-Layer"/>
  <g id="_2824180957184">
   <path class="fil0" d="M181.03 239.79c-7.38,0 -14.16,-1.54 -20.33,-4.6 -6.18,-3.07 -11.08,-7.32 -14.69,-12.75 -3.61,-5.44 -5.42,-11.59 -5.42,-18.45 0,-6.8 1.81,-12.92 5.42,-18.36 3.61,-5.43 8.51,-9.68 14.69,-12.75 6.17,-3.06 12.95,-4.59 20.33,-4.59 7.45,0 14.25,1.53 20.39,4.59 6.14,3.07 11,7.32 14.57,12.75 3.58,5.44 5.37,11.56 5.37,18.36 0,6.86 -1.79,13.01 -5.37,18.45 -3.57,5.43 -8.45,9.68 -14.63,12.75 -6.17,3.06 -12.95,4.6 -20.33,4.6zm0 -12.5c4.74,0 8.92,-0.95 12.54,-2.85 3.61,-1.9 6.44,-4.62 8.47,-8.15 2.03,-3.54 3.05,-7.64 3.05,-12.3 0,-4.67 -1.02,-8.75 -3.05,-12.25 -2.03,-3.5 -4.86,-6.19 -8.47,-8.06 -3.62,-1.86 -7.8,-2.79 -12.54,-2.79 -4.75,0 -8.94,0.93 -12.6,2.79 -3.65,1.87 -6.49,4.56 -8.53,8.06 -2.03,3.5 -3.05,7.58 -3.05,12.25 0,4.66 1.02,8.76 3.05,12.3 2.04,3.53 4.88,6.25 8.53,8.15 3.66,1.9 7.85,2.85 12.6,2.85zm92.75 11.8l-17.4 -27.2 -7.46 0 0 27.2 -15.81 0 0 -69.81 29.6 0c6.1,0 11.29,0.96 15.58,2.85 4.3,1.9 7.52,4.47 9.66,7.71 2.15,3.23 3.22,6.84 3.22,10.85 0,4.6 -1.5,8.75 -4.52,12.45 -3.01,3.7 -7.49,6.25 -13.44,7.65l18.87 28.3 -18.3 0zm-24.86 -37.7l13.22 0c4.29,0 7.49,-0.92 9.6,-2.75 2.11,-1.84 3.17,-4.39 3.17,-7.65 0,-3.2 -1.06,-5.69 -3.17,-7.46 -2.11,-1.76 -5.31,-2.64 -9.6,-2.64l-13.22 0 0 20.5zm72.41 -32.11l0 69.81 -15.81 0 0 -69.81 15.81 0zm52.2 70.51c-7.38,0 -14.16,-1.54 -20.34,-4.6 -6.17,-3.07 -11.07,-7.32 -14.68,-12.75 -3.62,-5.44 -5.43,-11.59 -5.43,-18.45 0,-6.8 1.81,-12.92 5.43,-18.36 3.61,-5.43 8.51,-9.68 14.68,-12.75 6.18,-3.06 12.96,-4.59 20.34,-4.59 7.45,0 14.25,1.53 20.39,4.59 6.13,3.07 10.99,7.32 14.57,12.75 3.58,5.44 5.36,11.56 5.36,18.36 0,6.86 -1.78,13.01 -5.36,18.45 -3.58,5.43 -8.45,9.68 -14.63,12.75 -6.18,3.06 -12.95,4.6 -20.33,4.6zm0 -12.5c4.74,0 8.92,-0.95 12.53,-2.85 3.62,-1.9 6.44,-4.62 8.48,-8.15 2.03,-3.54 3.05,-7.64 3.05,-12.3 0,-4.67 -1.02,-8.75 -3.05,-12.25 -2.04,-3.5 -4.86,-6.19 -8.48,-8.06 -3.61,-1.86 -7.79,-2.79 -12.53,-2.79 -4.75,0 -8.95,0.93 -12.6,2.79 -3.65,1.87 -6.5,4.56 -8.53,8.06 -2.03,3.5 -3.05,7.58 -3.05,12.25 0,4.66 1.02,8.76 3.05,12.3 2.03,3.53 4.88,6.25 8.53,8.15 3.65,1.9 7.85,2.85 12.6,2.85zm119.51 11.8l-15.81 0 -35.81 -47.9 0 47.9 -15.82 0 0 -69.9 15.82 0 35.81 48 0 -48 15.81 0 0 69.9z"/>
   <path class="fil1" d="M119.59 168.26c5.84,0 10.58,4.73 10.58,10.58 0,5.84 -4.74,10.58 -10.58,10.58 -5.85,0 -10.59,-4.74 -10.59,-10.58 0,-5.85 4.74,-10.58 10.59,-10.58z"/>
   <path class="fil1" d="M127.6 218.89c8.92,0 16.15,7.22 16.15,16.14 0,8.92 -7.23,16.14 -16.15,16.14 -8.91,0 -16.14,-7.22 -16.14,-16.14 0,-8.92 7.23,-16.14 16.14,-16.14z"/>
   <path class="fil1" d="M166.94 146.82c3.02,0 5.48,2.45 5.48,5.47 0,3.03 -2.46,5.48 -5.48,5.48 -3.03,0 -5.48,-2.45 -5.48,-5.48 0,-3.02 2.45,-5.47 5.48,-5.47z"/>
   <path class="fil1" d="M180.47 133.4c3.03,0 5.48,2.45 5.48,5.47 0,3.03 -2.45,5.48 -5.48,5.48 -3.02,0 -5.47,-2.45 -5.47,-5.48 0,-3.02 2.45,-5.47 5.47,-5.47z"/>
   <path class="fil1" d="M131.16 203.97c3.03,0 5.48,2.45 5.48,5.48 0,3.02 -2.45,5.47 -5.48,5.47 -3.03,0 -5.48,-2.45 -5.48,-5.47 0,-3.03 2.45,-5.48 5.48,-5.48z"/>
   <path class="fil1" d="M144.25 160.09c3.02,0 5.47,2.45 5.47,5.47 0,3.03 -2.45,5.48 -5.47,5.48 -3.03,0 -5.48,-2.45 -5.48,-5.48 0,-3.02 2.45,-5.47 5.48,-5.47z"/>
   <path class="fil1" d="M150.8 250.12c3.03,0 5.48,2.45 5.48,5.48 0,3.02 -2.45,5.47 -5.48,5.47 -3.03,0 -5.48,-2.45 -5.48,-5.47 0,-3.03 2.45,-5.48 5.48,-5.48z"/>
   <path class="fil1" d="M112.43 194.38c3.03,0 5.48,2.45 5.48,5.48 0,3.03 -2.45,5.48 -5.48,5.48 -3.02,0 -5.47,-2.45 -5.47,-5.48 0,-3.03 2.45,-5.48 5.47,-5.48z"/>
   <path class="fil1" d="M168.51 241.24c2.58,0 4.67,2.09 4.67,4.67 0,2.58 -2.09,4.67 -4.67,4.67 -2.59,0 -4.68,-2.09 -4.68,-4.67 0,-2.58 2.09,-4.67 4.68,-4.67z"/>
   <path class="fil1" d="M181.41 252.37c1.07,0 1.93,0.87 1.93,1.94 0,1.06 -0.86,1.93 -1.93,1.93 -1.06,0 -1.93,-0.87 -1.93,-1.93 0,-1.07 0.87,-1.94 1.93,-1.94z"/>
   <path class="fil1" d="M134.91 188.78c1.06,0 1.93,0.86 1.93,1.93 0,1.07 -0.87,1.93 -1.93,1.93 -1.07,0 -1.93,-0.86 -1.93,-1.93 0,-1.07 0.86,-1.93 1.93,-1.93z"/>
   <path class="fil1" d="M148.12 143.83c1.07,0 1.93,0.87 1.93,1.94 0,1.06 -0.86,1.93 -1.93,1.93 -1.07,0 -1.93,-0.87 -1.93,-1.93 0,-1.07 0.86,-1.94 1.93,-1.94z"/>
   <path class="fil1" d="M220.44 224.43c2.78,0 5.03,2.25 5.03,5.02 0,2.78 -2.25,5.03 -5.03,5.03 -2.77,0 -5.02,-2.25 -5.02,-5.03 0,-2.77 2.25,-5.02 5.02,-5.02z"/>
   <path class="fil1" d="M200.95 137.62c5.74,0 10.4,4.66 10.4,10.41 0,5.75 -4.66,10.4 -10.4,10.4 -5.75,0 -10.41,-4.65 -10.41,-10.4 0,-5.75 4.66,-10.41 10.41,-10.41z"/>
   <path class="fil1" d="M224.93 189.6c1.52,0 2.74,1.23 2.74,2.74 0,1.52 -1.22,2.74 -2.74,2.74 -1.51,0 -2.73,-1.22 -2.73,-2.74 0,-1.51 1.22,-2.74 2.73,-2.74z"/>
   <path class="fil1" d="M209.7 239.44c1.07,0 1.93,0.86 1.93,1.93 0,1.07 -0.86,1.93 -1.93,1.93 -1.06,0 -1.93,-0.86 -1.93,-1.93 0,-1.07 0.87,-1.93 1.93,-1.93z"/>
   <path class="fil1" d="M210.73 161.24c1.07,0 1.93,0.87 1.93,1.93 0,1.07 -0.86,1.93 -1.93,1.93 -1.07,0 -1.93,-0.86 -1.93,-1.93 0,-1.06 0.86,-1.93 1.93,-1.93z"/>
   <path class="fil1" d="M221.88 167.83c3.02,0 5.47,2.45 5.47,5.47 0,3.03 -2.45,5.48 -5.47,5.48 -3.03,0 -5.48,-2.45 -5.48,-5.48 0,-3.02 2.45,-5.47 5.48,-5.47z"/>
   <path class="fil1" d="M206.25 248.57c4.97,0 9.01,4.04 9.01,9.02 0,4.98 -4.04,9.01 -9.01,9.01 -4.98,0 -9.02,-4.03 -9.02,-9.01 0,-4.98 4.04,-9.02 9.02,-9.02z"/>
  </g>
 </g>
</svg>
